<svg xmlns="http://www.w3.org/2000/svg" width="15.312" height="15.708" viewBox="0 0 15.312 15.708">
  <path id="favorite" d="M5.859.933a.5.5,0,0,1,.9,0L8.116,3.743a.5.5,0,0,0,.383.278l3.093.422a.5.5,0,0,1,.278.856L9.616,7.459a.5.5,0,0,0-.146.45l.554,3.072a.5.5,0,0,1-.729.529l-2.75-1.476a.5.5,0,0,0-.473,0L3.322,11.51a.5.5,0,0,1-.729-.529l.554-3.072A.5.5,0,0,0,3,7.459L.748,5.3a.5.5,0,0,1,.278-.856l3.093-.422A.5.5,0,0,0,4.5,3.743Z" transform="matrix(0.309, 0.951, -0.951, 0.309, 11.413, 0)" fill="#fff"/>
</svg>
