<svg xmlns="http://www.w3.org/2000/svg" width="24.701" height="24.7" viewBox="0 0 24.701 24.7">
  <path id="Search" d="M24.248,22.185,17.485,15.42a9.573,9.573,0,0,0,1.853-5.7A9.76,9.76,0,0,0,9.634,0,9.591,9.591,0,0,0,0,9.648a9.76,9.76,0,0,0,9.7,9.718,9.543,9.543,0,0,0,5.719-1.873l.007-.005,6.757,6.76a1.458,1.458,0,1,0,2.061-2.063ZM9.7,17.429A7.808,7.808,0,0,1,1.934,9.655,7.675,7.675,0,0,1,9.641,1.936,7.808,7.808,0,0,1,17.4,9.71,7.675,7.675,0,0,1,9.7,17.429Z" fill="#fff" fill-rule="evenodd"/>
</svg>
